<svg
	xmlns="http://www.w3.org/2000/svg"
	version="1.1"
	viewBox="0 0 33 33 "
	stroke="none">

	<!-- QrBackground  -->
	<g id="QrBackground" fill="#270065">
		<rect width="33" height="33" rx="4" ry="4" />
	</g>

	<!-- QrBody  -->
	<g id="QrBody">

		<!-- BODY     -->
		<g id="BODY" fill="#d4ff00">
			<circle cx="11.5" cy="2.5" r="0.5"/>
			<path d="M14 2 A1 1 0 0 0 13 3 L14 3 Z"/>
			<path d="M14 2 L14.5 2 A0.5 0.5 0 0 1 14.5 3 L14 3 Z"/>
			<circle cx="18.5" cy="2.5" r="0.5"/>
			<path d="M22 2 L21.5 2 A0.5 0.5 0 0 0 21.5 3 L22 3 Z"/>
			<path d="M22 2 A1 1 0 0 1 23 3 L22 3 Z"/>
			<path d="M13 3 A1 1 0 0 0 12 4 L13 4 Z"/>
			<path d="M13 3 h1v1h-1z Z"/>
			<path d="M17 3 A1 1 0 0 0 16 4 L17 4 Z"/>
			<path d="M17 3 A1 1 0 0 1 18 4 L17 4 Z"/>
			<path d="M20 3 L19.5 3 A0.5 0.5 0 0 0 19.5 4 L20 4 Z"/>
			<path d="M20 3 A1 1 0 0 1 21 4 L20 4 Z"/>
			<path d="M22 3 h1v1h-1z Z"/>
			<path d="M11 4 A1 1 0 0 0 10 5 L11 5 Z"/>
			<path d="M11 4 h1v1h-1z Z"/>
			<path d="M12 4 h1v1h-1z Z"/>
			<path d="M13 4 h1v1h-1z Z"/>
			<path d="M14 4 L14.5 4 A0.5 0.5 0 0 1 14.5 5 L14 5 Z"/>
			<path d="M16 4 A1 1 0 0 0 17 5 L17 4 Z"/>
			<path d="M17 4 h1v1h-1z Z"/>
			<path d="M18 4 L18.5 4 A0.5 0.5 0 0 1 18.5 5 L18 5 Z"/>
			<path d="M20 4 A1 1 0 0 0 21 5 L21 4 Z"/>
			<path d="M21 4 h1v1h-1z Z"/>
			<path d="M23 4 A1 1 0 0 1 22 5 L22 4 Z"/>
			<path d="M10 5 h1v1h-1z Z"/>
			<path d="M13 5 h1v1h-1z Z"/>
			<path d="M17 5 L17 5.5 A0.5 0.5 0 0 0 18 5.5 L18 5 Z"/>
			<circle cx="19.5" cy="5.5" r="0.5"/>
			<path d="M21 5 h1v1h-1z Z"/>
			<path d="M10 6 h1v1h-1z Z"/>
			<path d="M11 6 L11.5 6 A0.5 0.5 0 0 1 11.5 7 L11 7 Z"/>
			<path d="M13 6 h1v1h-1z Z"/>
			<path d="M15 7 L15 6.5 A0.5 0.5 0 0 1 16 6.5 L16 7 Z"/>
			<path d="M18 7 L18 6.5 A0.5 0.5 0 0 1 19 6.5 L19 7 Z"/>
			<path d="M21 6 L20.5 6 A0.5 0.5 0 0 0 20.5 7 L21 7 Z"/>
			<path d="M21 6 h1v1h-1z Z"/>
			<path d="M22 6 L22.5 6 A0.5 0.5 0 0 1 22.5 7 L22 7 Z"/>
			<path d="M10 7 h1v1h-1z Z"/>
			<path d="M13 7 A1 1 0 0 0 14 8 L14 7 Z"/>
			<path d="M14 7 h1v1h-1z Z"/>
			<path d="M15 7 h1v1h-1z Z"/>
			<path d="M16 7 h1v1h-1z Z"/>
			<path d="M17 7 h1v1h-1z Z"/>
			<path d="M18 7 h1v1h-1z Z"/>
			<path d="M19 7 L19.5 7 A0.5 0.5 0 0 1 19.5 8 L19 8 Z"/>
			<path d="M10 8 h1v1h-1z Z"/>
			<path d="M12 9 L12 8.5 A0.5 0.5 0 0 1 13 8.5 L13 9 Z"/>
			<path d="M14 8 h1v1h-1z Z"/>
			<path d="M16 8 L16 8.5 A0.5 0.5 0 0 0 17 8.5 L17 8 Z"/>
			<path d="M18 8 h1v1h-1z Z"/>
			<circle cx="20.5" cy="8.5" r="0.5"/>
			<path d="M22 9 L22 8.5 A0.5 0.5 0 0 1 23 8.5 L23 9 Z"/>
			<path d="M10 9 A1 1 0 0 0 11 10 L11 9 Z"/>
			<path d="M11 9 h1v1h-1z Z"/>
			<path d="M12 9 h1v1h-1z Z"/>
			<path d="M13 9 h1v1h-1z Z"/>
			<path d="M14 9 h1v1h-1z Z"/>
			<path d="M15 9 L15.5 9 A0.5 0.5 0 0 1 15.5 10 L15 10 Z"/>
			<path d="M18 9 L18 9.5 A0.5 0.5 0 0 0 19 9.5 L19 9 Z"/>
			<path d="M22 9 A1 1 0 0 0 21 10 L22 10 Z"/>
			<path d="M23 9 A1 1 0 0 1 22 10 L22 9 Z"/>
			<path d="M2 11 L2 10.5 A0.5 0.5 0 0 1 3 10.5 L3 11 Z"/>
			<path d="M5 10 L4.5 10 A0.5 0.5 0 0 0 4.5 11 L5 11 Z"/>
			<path d="M5 10 h1v1h-1z Z"/>
			<path d="M6 10 h1v1h-1z Z"/>
			<path d="M7 10 h1v1h-1z Z"/>
			<path d="M8 10 L8.5 10 A0.5 0.5 0 0 1 8.5 11 L8 11 Z"/>
			<path d="M13 10 h1v1h-1z Z"/>
			<circle cx="16.5" cy="10.5" r="0.5"/>
			<path d="M20 10 A1 1 0 0 0 19 11 L20 11 Z"/>
			<path d="M20 10 h1v1h-1z Z"/>
			<path d="M21 10 h1v1h-1z Z"/>
			<path d="M25 10 A1 1 0 0 0 24 11 L25 11 Z"/>
			<path d="M25 10 h1v1h-1z Z"/>
			<path d="M26 10 h1v1h-1z Z"/>
			<path d="M27 10 h1v1h-1z Z"/>
			<path d="M28 10 L28.5 10 A0.5 0.5 0 0 1 28.5 11 L28 11 Z"/>
			<path d="M2 11 A1 1 0 0 0 3 12 L3 11 Z"/>
			<path d="M3 11 L3.5 11 A0.5 0.5 0 0 1 3.5 12 L3 12 Z"/>
			<path d="M6 11 h1v1h-1z Z"/>
			<path d="M7 11 h1v1h-1z Z"/>
			<path d="M10 11 A1 1 0 0 0 9 12 L10 12 Z"/>
			<path d="M10 11 A1 1 0 0 1 11 12 L10 12 Z"/>
			<path d="M13 11 L12.5 11 A0.5 0.5 0 0 0 12.5 12 L13 12 Z"/>
			<path d="M13 11 h1v1h-1z Z"/>
			<path d="M14 11 L14.5 11 A0.5 0.5 0 0 1 14.5 12 L14 12 Z"/>
			<path d="M19 11 A1 1 0 0 0 18 12 L19 12 Z"/>
			<path d="M19 11 h1v1h-1z Z"/>
			<path d="M20 11 h1v1h-1z Z"/>
			<path d="M22 11 A1 1 0 0 1 21 12 L21 11 Z"/>
			<path d="M24 11 A1 1 0 0 0 23 12 L24 12 Z"/>
			<path d="M24 11 h1v1h-1z Z"/>
			<path d="M25 11 h1v1h-1z Z"/>
			<path d="M27 11 A1 1 0 0 1 26 12 L26 11 Z"/>
			<circle cx="30.5" cy="11.5" r="0.5"/>
			<path d="M6 12 A1 1 0 0 0 5 13 L6 13 Z"/>
			<path d="M6 12 h1v1h-1z Z"/>
			<path d="M7 12 h1v1h-1z Z"/>
			<path d="M8 12 h1v1h-1z Z"/>
			<path d="M9 12 h1v1h-1z Z"/>
			<path d="M10 12 h1v1h-1z Z"/>
			<path d="M13 12 h1v1h-1z Z"/>
			<path d="M18 12 L17.5 12 A0.5 0.5 0 0 0 17.5 13 L18 13 Z"/>
			<path d="M18 12 h1v1h-1z Z"/>
			<path d="M20 12 A1 1 0 0 1 19 13 L19 12 Z"/>
			<path d="M23 12 L22.5 12 A0.5 0.5 0 0 0 22.5 13 L23 13 Z"/>
			<path d="M23 12 h1v1h-1z Z"/>
			<path d="M24 12 h1v1h-1z Z"/>
			<path d="M25 12 h1v1h-1z Z"/>
			<path d="M3 13 L2.5 13 A0.5 0.5 0 0 0 2.5 14 L3 14 Z"/>
			<path d="M3 13 h1v1h-1z Z"/>
			<path d="M4 13 h1v1h-1z Z"/>
			<path d="M6 13 A1 1 0 0 1 5 14 L5 13 Z"/>
			<path d="M7 13 h1v1h-1z Z"/>
			<path d="M9 13 A1 1 0 0 0 10 14 L10 13 Z"/>
			<path d="M10 13 h1v1h-1z Z"/>
			<path d="M11 13 L11.5 13 A0.5 0.5 0 0 1 11.5 14 L11 14 Z"/>
			<path d="M13 13 h1v1h-1z Z"/>
			<circle cx="16.5" cy="13.5" r="0.5"/>
			<path d="M25 13 h1v1h-1z Z"/>
			<path d="M26 13 h1v1h-1z Z"/>
			<path d="M27 13 A1 1 0 0 1 28 14 L27 14 Z"/>
			<circle cx="29.5" cy="13.5" r="0.5"/>
			<path d="M4 14 h1v1h-1z Z"/>
			<path d="M7 14 A1 1 0 0 0 8 15 L8 14 Z"/>
			<path d="M8 14 L8.5 14 A0.5 0.5 0 0 1 8.5 15 L8 15 Z"/>
			<path d="M10 14 L10 14.5 A0.5 0.5 0 0 0 11 14.5 L11 14 Z"/>
			<path d="M13 14 L12.5 14 A0.5 0.5 0 0 0 12.5 15 L13 15 Z"/>
			<path d="M14 14 A1 1 0 0 1 13 15 L13 14 Z"/>
			<circle cx="17.5" cy="14.5" r="0.5"/>
			<circle cx="19.5" cy="14.5" r="0.5"/>
			<path d="M25 14 h1v1h-1z Z"/>
			<path d="M27 14 A1 1 0 0 0 28 15 L28 14 Z"/>
			<path d="M28 14 L28.5 14 A0.5 0.5 0 0 1 28.5 15 L28 15 Z"/>
			<path d="M3 15 L2.5 15 A0.5 0.5 0 0 0 2.5 16 L3 16 Z"/>
			<path d="M3 15 h1v1h-1z Z"/>
			<path d="M4 15 h1v1h-1z Z"/>
			<path d="M9 16 L9 15.5 A0.5 0.5 0 0 1 10 15.5 L10 16 Z"/>
			<path d="M16 15 A1 1 0 0 0 15 16 L16 16 Z"/>
			<path d="M16 15 A1 1 0 0 1 17 16 L16 16 Z"/>
			<path d="M18 16 L18 15.5 A0.5 0.5 0 0 1 19 15.5 L19 16 Z"/>
			<path d="M22 15 L21.5 15 A0.5 0.5 0 0 0 21.5 16 L22 16 Z"/>
			<path d="M22 15 h1v1h-1z Z"/>
			<path d="M23 15 h1v1h-1z Z"/>
			<path d="M24 15 h1v1h-1z Z"/>
			<path d="M25 15 h1v1h-1z Z"/>
			<path d="M26 15 L26.5 15 A0.5 0.5 0 0 1 26.5 16 L26 16 Z"/>
			<circle cx="30.5" cy="15.5" r="0.5"/>
			<path d="M4 16 A1 1 0 0 0 5 17 L5 16 Z"/>
			<path d="M5 16 L5.5 16 A0.5 0.5 0 0 1 5.5 17 L5 17 Z"/>
			<path d="M9 16 L8.5 16 A0.5 0.5 0 0 0 8.5 17 L9 17 Z"/>
			<path d="M9 16 h1v1h-1z Z"/>
			<path d="M10 16 A1 1 0 0 1 11 17 L10 17 Z"/>
			<circle cx="12.5" cy="16.5" r="0.5"/>
			<path d="M15 16 L14.5 16 A0.5 0.5 0 0 0 14.5 17 L15 17 Z"/>
			<path d="M15 16 h1v1h-1z Z"/>
			<path d="M16 16 h1v1h-1z Z"/>
			<path d="M17 16 h1v1h-1z Z"/>
			<path d="M18 16 h1v1h-1z Z"/>
			<path d="M19 16 L19.5 16 A0.5 0.5 0 0 1 19.5 17 L19 17 Z"/>
			<path d="M22 16 A1 1 0 0 0 23 17 L23 16 Z"/>
			<path d="M23 16 h1v1h-1z Z"/>
			<path d="M24 16 h1v1h-1z Z"/>
			<path d="M28 16 L27.5 16 A0.5 0.5 0 0 0 27.5 17 L28 17 Z"/>
			<path d="M28 16 L28.5 16 A0.5 0.5 0 0 1 28.5 17 L28 17 Z"/>
			<path d="M2 18 L2 17.5 A0.5 0.5 0 0 1 3 17.5 L3 18 Z"/>
			<circle cx="6.5" cy="17.5" r="0.5"/>
			<path d="M9 17 A1 1 0 0 0 10 18 L10 17 Z"/>
			<path d="M10 17 h1v1h-1z Z"/>
			<path d="M11 17 L11.5 17 A0.5 0.5 0 0 1 11.5 18 L11 18 Z"/>
			<path d="M15 17 L15 17.5 A0.5 0.5 0 0 0 16 17.5 L16 17 Z"/>
			<path d="M18 17 h1v1h-1z Z"/>
			<path d="M24 17 A1 1 0 0 0 25 18 L25 17 Z"/>
			<path d="M25 17 L25.5 17 A0.5 0.5 0 0 1 25.5 18 L25 18 Z"/>
			<circle cx="29.5" cy="17.5" r="0.5"/>
			<path d="M2 18 h1v1h-1z Z"/>
			<circle cx="4.5" cy="18.5" r="0.5"/>
			<circle cx="8.5" cy="18.5" r="0.5"/>
			<path d="M10 18 h1v1h-1z Z"/>
			<circle cx="16.5" cy="18.5" r="0.5"/>
			<path d="M18 18 h1v1h-1z Z"/>
			<path d="M19 18 A1 1 0 0 1 20 19 L19 19 Z"/>
			<path d="M21 19 L21 18.5 A0.5 0.5 0 0 1 22 18.5 L22 19 Z"/>
			<path d="M28 18 L27.5 18 A0.5 0.5 0 0 0 27.5 19 L28 19 Z"/>
			<path d="M28 18 A1 1 0 0 1 29 19 L28 19 Z"/>
			<path d="M2 19 h1v1h-1z Z"/>
			<path d="M6 19 L5.5 19 A0.5 0.5 0 0 0 5.5 20 L6 20 Z"/>
			<path d="M6 19 A1 1 0 0 1 7 20 L6 20 Z"/>
			<path d="M10 19 A1 1 0 0 0 11 20 L11 19 Z"/>
			<path d="M11 19 A1 1 0 0 1 12 20 L11 20 Z"/>
			<path d="M18 19 A1 1 0 0 0 17 20 L18 20 Z"/>
			<path d="M18 19 h1v1h-1z Z"/>
			<path d="M19 19 h1v1h-1z Z"/>
			<path d="M20 19 h1v1h-1z Z"/>
			<path d="M21 19 h1v1h-1z Z"/>
			<path d="M22 19 h1v1h-1z Z"/>
			<path d="M23 19 h1v1h-1z Z"/>
			<path d="M24 19 A1 1 0 0 1 25 20 L24 20 Z"/>
			<circle cx="26.5" cy="19.5" r="0.5"/>
			<path d="M28 19 h1v1h-1z Z"/>
			<circle cx="30.5" cy="19.5" r="0.5"/>
			<path d="M2 20 h1v1h-1z Z"/>
			<circle cx="4.5" cy="20.5" r="0.5"/>
			<path d="M6 20 L6 20.5 A0.5 0.5 0 0 0 7 20.5 L7 20 Z"/>
			<path d="M9 20 L8.5 20 A0.5 0.5 0 0 0 8.5 21 L9 21 Z"/>
			<path d="M9 20 L9.5 20 A0.5 0.5 0 0 1 9.5 21 L9 21 Z"/>
			<path d="M11 20 h1v1h-1z Z"/>
			<path d="M12 20 h1v1h-1z Z"/>
			<path d="M13 20 h1v1h-1z Z"/>
			<path d="M14 20 L14.5 20 A0.5 0.5 0 0 1 14.5 21 L14 21 Z"/>
			<path d="M17 20 L17 20.5 A0.5 0.5 0 0 0 18 20.5 L18 20 Z"/>
			<path d="M20 20 L20 20.5 A0.5 0.5 0 0 0 21 20.5 L21 20 Z"/>
			<path d="M23 20 A1 1 0 0 0 24 21 L24 20 Z"/>
			<path d="M25 20 A1 1 0 0 1 24 21 L24 20 Z"/>
			<path d="M28 20 L28 20.5 A0.5 0.5 0 0 0 29 20.5 L29 20 Z"/>
			<path d="M2 21 h1v1h-1z Z"/>
			<path d="M11 21 A1 1 0 0 0 12 22 L12 21 Z"/>
			<path d="M12 21 h1v1h-1z Z"/>
			<circle cx="16.5" cy="21.5" r="0.5"/>
			<path d="M22 22 L22 21.5 A0.5 0.5 0 0 1 23 21.5 L23 22 Z"/>
			<path d="M25 22 L25 21.5 A0.5 0.5 0 0 1 26 21.5 L26 22 Z"/>
			<path d="M29 22 L29 21.5 A0.5 0.5 0 0 1 30 21.5 L30 22 Z"/>
			<path d="M2 22 L2 22.5 A0.5 0.5 0 0 0 3 22.5 L3 22 Z"/>
			<path d="M6 22 L5.5 22 A0.5 0.5 0 0 0 5.5 23 L6 23 Z"/>
			<path d="M6 22 L6.5 22 A0.5 0.5 0 0 1 6.5 23 L6 23 Z"/>
			<path d="M9 22 L8.5 22 A0.5 0.5 0 0 0 8.5 23 L9 23 Z"/>
			<path d="M9 22 h1v1h-1z Z"/>
			<path d="M10 22 A1 1 0 0 1 11 23 L10 23 Z"/>
			<path d="M12 22 L12 22.5 A0.5 0.5 0 0 0 13 22.5 L13 22 Z"/>
			<circle cx="14.5" cy="22.5" r="0.5"/>
			<path d="M18 22 A1 1 0 0 0 17 23 L18 23 Z"/>
			<path d="M18 22 h1v1h-1z Z"/>
			<path d="M19 22 A1 1 0 0 1 20 23 L19 23 Z"/>
			<path d="M22 22 h1v1h-1z Z"/>
			<path d="M23 22 h1v1h-1z Z"/>
			<path d="M24 22 h1v1h-1z Z"/>
			<path d="M25 22 h1v1h-1z Z"/>
			<path d="M26 22 A1 1 0 0 1 27 23 L26 23 Z"/>
			<path d="M29 22 A1 1 0 0 0 28 23 L29 23 Z"/>
			<path d="M29 22 h1v1h-1z Z"/>
			<path d="M30 22 A1 1 0 0 1 31 23 L30 23 Z"/>
			<path d="M10 23 A1 1 0 0 0 11 24 L11 23 Z"/>
			<path d="M11 23 L11.5 23 A0.5 0.5 0 0 1 11.5 24 L11 24 Z"/>
			<path d="M16 23 A1 1 0 0 0 15 24 L16 24 Z"/>
			<path d="M16 23 h1v1h-1z Z"/>
			<path d="M17 23 h1v1h-1z Z"/>
			<path d="M18 23 h1v1h-1z Z"/>
			<path d="M19 23 h1v1h-1z Z"/>
			<path d="M20 23 A1 1 0 0 1 21 24 L20 24 Z"/>
			<path d="M22 23 h1v1h-1z Z"/>
			<path d="M26 23 h1v1h-1z Z"/>
			<path d="M27 23 h1v1h-1z Z"/>
			<path d="M28 23 h1v1h-1z Z"/>
			<path d="M29 23 h1v1h-1z Z"/>
			<path d="M31 23 A1 1 0 0 1 30 24 L30 23 Z"/>
			<path d="M15 24 h1v1h-1z Z"/>
			<path d="M16 24 h1v1h-1z Z"/>
			<path d="M17 24 h1v1h-1z Z"/>
			<path d="M18 24 h1v1h-1z Z"/>
			<path d="M19 24 h1v1h-1z Z"/>
			<path d="M20 24 h1v1h-1z Z"/>
			<path d="M21 24 h1v1h-1z Z"/>
			<path d="M22 24 h1v1h-1z Z"/>
			<circle cx="24.5" cy="24.5" r="0.5"/>
			<path d="M26 24 h1v1h-1z Z"/>
			<path d="M27 24 h1v1h-1z Z"/>
			<path d="M29 24 A1 1 0 0 1 28 25 L28 24 Z"/>
			<path d="M11 25 A1 1 0 0 0 10 26 L11 26 Z"/>
			<path d="M11 25 A1 1 0 0 1 12 26 L11 26 Z"/>
			<path d="M15 25 L15 25.5 A0.5 0.5 0 0 0 16 25.5 L16 25 Z"/>
			<path d="M17 25 h1v1h-1z Z"/>
			<path d="M21 25 A1 1 0 0 0 22 26 L22 25 Z"/>
			<path d="M22 25 h1v1h-1z Z"/>
			<path d="M26 25 h1v1h-1z Z"/>
			<path d="M10 26 h1v1h-1z Z"/>
			<path d="M11 26 h1v1h-1z Z"/>
			<path d="M14 26 L13.5 26 A0.5 0.5 0 0 0 13.5 27 L14 27 Z"/>
			<path d="M14 26 L14.5 26 A0.5 0.5 0 0 1 14.5 27 L14 27 Z"/>
			<path d="M17 26 L16.5 26 A0.5 0.5 0 0 0 16.5 27 L17 27 Z"/>
			<path d="M17 26 h1v1h-1z Z"/>
			<path d="M18 26 h1v1h-1z Z"/>
			<path d="M19 26 A1 1 0 0 1 20 27 L19 27 Z"/>
			<path d="M22 26 A1 1 0 0 0 23 27 L23 26 Z"/>
			<path d="M23 26 h1v1h-1z Z"/>
			<path d="M24 26 h1v1h-1z Z"/>
			<path d="M25 26 h1v1h-1z Z"/>
			<path d="M27 26 A1 1 0 0 1 26 27 L26 26 Z"/>
			<path d="M28 27 L28 26.5 A0.5 0.5 0 0 1 29 26.5 L29 27 Z"/>
			<path d="M10 27 h1v1h-1z Z"/>
			<path d="M12 27 A1 1 0 0 1 11 28 L11 27 Z"/>
			<path d="M15 28 L15 27.5 A0.5 0.5 0 0 1 16 27.5 L16 28 Z"/>
			<path d="M17 27 h1v1h-1z Z"/>
			<path d="M18 27 h1v1h-1z Z"/>
			<path d="M19 27 h1v1h-1z Z"/>
			<path d="M20 27 h1v1h-1z Z"/>
			<path d="M21 27 A1 1 0 0 1 22 28 L21 28 Z"/>
			<path d="M28 27 A1 1 0 0 0 27 28 L28 28 Z"/>
			<path d="M28 27 h1v1h-1z Z"/>
			<path d="M29 27 h1v1h-1z Z"/>
			<path d="M30 27 L30.5 27 A0.5 0.5 0 0 1 30.5 28 L30 28 Z"/>
			<path d="M10 28 L10 28.5 A0.5 0.5 0 0 0 11 28.5 L11 28 Z"/>
			<circle cx="12.5" cy="28.5" r="0.5"/>
			<path d="M15 28 A1 1 0 0 0 14 29 L15 29 Z"/>
			<path d="M16 28 A1 1 0 0 1 15 29 L15 28 Z"/>
			<path d="M17 28 A1 1 0 0 0 18 29 L18 28 Z"/>
			<path d="M18 28 h1v1h-1z Z"/>
			<path d="M20 28 A1 1 0 0 0 21 29 L21 28 Z"/>
			<path d="M22 28 A1 1 0 0 1 21 29 L21 28 Z"/>
			<path d="M25 28 L24.5 28 A0.5 0.5 0 0 0 24.5 29 L25 29 Z"/>
			<path d="M25 28 h1v1h-1z Z"/>
			<path d="M26 28 h1v1h-1z Z"/>
			<path d="M27 28 h1v1h-1z Z"/>
			<path d="M28 28 h1v1h-1z Z"/>
			<path d="M29 28 h1v1h-1z Z"/>
			<path d="M14 29 L14 29.5 A0.5 0.5 0 0 0 15 29.5 L15 29 Z"/>
			<path d="M18 29 L18 29.5 A0.5 0.5 0 0 0 19 29.5 L19 29 Z"/>
			<path d="M23 29 L22.5 29 A0.5 0.5 0 0 0 22.5 30 L23 30 Z"/>
			<path d="M23 29 A1 1 0 0 1 24 30 L23 30 Z"/>
			<path d="M25 29 h1v1h-1z Z"/>
			<path d="M26 29 h1v1h-1z Z"/>
			<path d="M28 29 A1 1 0 0 1 27 30 L27 29 Z"/>
			<path d="M29 29 L29 29.5 A0.5 0.5 0 0 0 30 29.5 L30 29 Z"/>
			<path d="M11 30 L10.5 30 A0.5 0.5 0 0 0 10.5 31 L11 31 Z"/>
			<path d="M11 30 h1v1h-1z Z"/>
			<path d="M12 30 L12.5 30 A0.5 0.5 0 0 1 12.5 31 L12 31 Z"/>
			<path d="M20 30 L19.5 30 A0.5 0.5 0 0 0 19.5 31 L20 31 Z"/>
			<path d="M20 30 h1v1h-1z Z"/>
			<path d="M21 30 L21.5 30 A0.5 0.5 0 0 1 21.5 31 L21 31 Z"/>
			<path d="M23 30 L23 30.5 A0.5 0.5 0 0 0 24 30.5 L24 30 Z"/>
			<path d="M25 30 A1 1 0 0 0 26 31 L26 30 Z"/>
			<path d="M27 30 A1 1 0 0 1 26 31 L26 30 Z"/>
			<circle cx="28.5" cy="30.5" r="0.5"/>
		</g>
		<!-- EYEFRAME -->
		<g id="EYEFRAME" fill="#ff0000">
			<path d="M3 2 A1 1 0 0 0 2 3 L3 3 Z"/>
			<path d="M3 2 h1v1h-1z Z"/>
			<path d="M4 2 h1v1h-1z Z"/>
			<path d="M5 2 h1v1h-1z Z"/>
			<path d="M6 2 h1v1h-1z Z"/>
			<path d="M7 2 h1v1h-1z Z"/>
			<path d="M8 2 A1 1 0 0 1 9 3 L8 3 Z"/>
			<path d="M25 2 A1 1 0 0 0 24 3 L25 3 Z"/>
			<path d="M25 2 h1v1h-1z Z"/>
			<path d="M26 2 h1v1h-1z Z"/>
			<path d="M27 2 h1v1h-1z Z"/>
			<path d="M28 2 h1v1h-1z Z"/>
			<path d="M29 2 h1v1h-1z Z"/>
			<path d="M30 2 A1 1 0 0 1 31 3 L30 3 Z"/>
			<path d="M2 3 h1v1h-1z Z"/>
			<path d="M8 3 h1v1h-1z Z"/>
			<path d="M24 3 h1v1h-1z Z"/>
			<path d="M30 3 h1v1h-1z Z"/>
			<path d="M2 4 h1v1h-1z Z"/>
			<path d="M8 4 h1v1h-1z Z"/>
			<path d="M24 4 h1v1h-1z Z"/>
			<path d="M30 4 h1v1h-1z Z"/>
			<path d="M2 5 h1v1h-1z Z"/>
			<path d="M8 5 h1v1h-1z Z"/>
			<path d="M24 5 h1v1h-1z Z"/>
			<path d="M30 5 h1v1h-1z Z"/>
			<path d="M2 6 h1v1h-1z Z"/>
			<path d="M8 6 h1v1h-1z Z"/>
			<path d="M24 6 h1v1h-1z Z"/>
			<path d="M30 6 h1v1h-1z Z"/>
			<path d="M2 7 h1v1h-1z Z"/>
			<path d="M8 7 h1v1h-1z Z"/>
			<path d="M24 7 h1v1h-1z Z"/>
			<path d="M30 7 h1v1h-1z Z"/>
			<path d="M2 8 A1 1 0 0 0 3 9 L3 8 Z"/>
			<path d="M3 8 h1v1h-1z Z"/>
			<path d="M4 8 h1v1h-1z Z"/>
			<path d="M5 8 h1v1h-1z Z"/>
			<path d="M6 8 h1v1h-1z Z"/>
			<path d="M7 8 h1v1h-1z Z"/>
			<path d="M9 8 A1 1 0 0 1 8 9 L8 8 Z"/>
			<path d="M24 8 A1 1 0 0 0 25 9 L25 8 Z"/>
			<path d="M25 8 h1v1h-1z Z"/>
			<path d="M26 8 h1v1h-1z Z"/>
			<path d="M27 8 h1v1h-1z Z"/>
			<path d="M28 8 h1v1h-1z Z"/>
			<path d="M29 8 h1v1h-1z Z"/>
			<path d="M31 8 A1 1 0 0 1 30 9 L30 8 Z"/>
			<path d="M3 24 A1 1 0 0 0 2 25 L3 25 Z"/>
			<path d="M3 24 h1v1h-1z Z"/>
			<path d="M4 24 h1v1h-1z Z"/>
			<path d="M5 24 h1v1h-1z Z"/>
			<path d="M6 24 h1v1h-1z Z"/>
			<path d="M7 24 h1v1h-1z Z"/>
			<path d="M8 24 A1 1 0 0 1 9 25 L8 25 Z"/>
			<path d="M2 25 h1v1h-1z Z"/>
			<path d="M8 25 h1v1h-1z Z"/>
			<path d="M2 26 h1v1h-1z Z"/>
			<path d="M8 26 h1v1h-1z Z"/>
			<path d="M2 27 h1v1h-1z Z"/>
			<path d="M8 27 h1v1h-1z Z"/>
			<path d="M2 28 h1v1h-1z Z"/>
			<path d="M8 28 h1v1h-1z Z"/>
			<path d="M2 29 h1v1h-1z Z"/>
			<path d="M8 29 h1v1h-1z Z"/>
			<path d="M2 30 A1 1 0 0 0 3 31 L3 30 Z"/>
			<path d="M3 30 h1v1h-1z Z"/>
			<path d="M4 30 h1v1h-1z Z"/>
			<path d="M5 30 h1v1h-1z Z"/>
			<path d="M6 30 h1v1h-1z Z"/>
			<path d="M7 30 h1v1h-1z Z"/>
			<path d="M9 30 A1 1 0 0 1 8 31 L8 30 Z"/>
		</g>
		<!-- EYEBALL  -->
		<g id="EYEBALL" fill="#ff0000">
			<path d="M5 4 A1 1 0 0 0 4 5 L5 5 Z"/>
			<path d="M5 4 h1v1h-1z Z"/>
			<path d="M6 4 A1 1 0 0 1 7 5 L6 5 Z"/>
			<path d="M27 4 A1 1 0 0 0 26 5 L27 5 Z"/>
			<path d="M27 4 h1v1h-1z Z"/>
			<path d="M28 4 A1 1 0 0 1 29 5 L28 5 Z"/>
			<path d="M4 5 h1v1h-1z Z"/>
			<path d="M5 5 h1v1h-1z Z"/>
			<path d="M6 5 h1v1h-1z Z"/>
			<path d="M26 5 h1v1h-1z Z"/>
			<path d="M27 5 h1v1h-1z Z"/>
			<path d="M28 5 h1v1h-1z Z"/>
			<path d="M4 6 A1 1 0 0 0 5 7 L5 6 Z"/>
			<path d="M5 6 h1v1h-1z Z"/>
			<path d="M7 6 A1 1 0 0 1 6 7 L6 6 Z"/>
			<path d="M26 6 A1 1 0 0 0 27 7 L27 6 Z"/>
			<path d="M27 6 h1v1h-1z Z"/>
			<path d="M29 6 A1 1 0 0 1 28 7 L28 6 Z"/>
			<path d="M5 26 A1 1 0 0 0 4 27 L5 27 Z"/>
			<path d="M5 26 h1v1h-1z Z"/>
			<path d="M6 26 A1 1 0 0 1 7 27 L6 27 Z"/>
			<path d="M4 27 h1v1h-1z Z"/>
			<path d="M5 27 h1v1h-1z Z"/>
			<path d="M6 27 h1v1h-1z Z"/>
			<path d="M4 28 A1 1 0 0 0 5 29 L5 28 Z"/>
			<path d="M5 28 h1v1h-1z Z"/>
			<path d="M7 28 A1 1 0 0 1 6 29 L6 28 Z"/>
		</g>
	</g>
</svg>
