<svg
	xmlns="http://www.w3.org/2000/svg"
	version="1.1"
	viewBox="0 0 33 33 "
	stroke="none">

	<!-- QrBackground  -->
	<g id="QrBackground" fill="#ffee00">
		<rect width="33" height="33" rx="4" ry="4" />
	</g>

	<!-- QrBody  -->
	<g id="QrBody">

		<!-- BODY     -->
		<g id="BODY" fill="#bc0068">
			<path d="
				M11,2 h1v1h-1z
				M13,2 h1v1h-1z
				M14,2 h1v1h-1z
				M18,2 h1v1h-1z
				M21,2 h1v1h-1z
				M22,2 h1v1h-1z
				M12,3 h1v1h-1z
				M13,3 h1v1h-1z
				M16,3 h1v1h-1z
				M17,3 h1v1h-1z
				M19,3 h1v1h-1z
				M20,3 h1v1h-1z
				M22,3 h1v1h-1z
				M10,4 h1v1h-1z
				M11,4 h1v1h-1z
				M12,4 h1v1h-1z
				M13,4 h1v1h-1z
				M14,4 h1v1h-1z
				M16,4 h1v1h-1z
				M17,4 h1v1h-1z
				M18,4 h1v1h-1z
				M20,4 h1v1h-1z
				M21,4 h1v1h-1z
				M22,4 h1v1h-1z
				M10,5 h1v1h-1z
				M13,5 h1v1h-1z
				M17,5 h1v1h-1z
				M19,5 h1v1h-1z
				M21,5 h1v1h-1z
				M10,6 h1v1h-1z
				M11,6 h1v1h-1z
				M13,6 h1v1h-1z
				M15,6 h1v1h-1z
				M18,6 h1v1h-1z
				M20,6 h1v1h-1z
				M21,6 h1v1h-1z
				M22,6 h1v1h-1z
				M10,7 h1v1h-1z
				M13,7 h1v1h-1z
				M14,7 h1v1h-1z
				M15,7 h1v1h-1z
				M16,7 h1v1h-1z
				M17,7 h1v1h-1z
				M18,7 h1v1h-1z
				M19,7 h1v1h-1z
				M10,8 h1v1h-1z
				M12,8 h1v1h-1z
				M14,8 h1v1h-1z
				M16,8 h1v1h-1z
				M18,8 h1v1h-1z
				M20,8 h1v1h-1z
				M22,8 h1v1h-1z
				M10,9 h1v1h-1z
				M11,9 h1v1h-1z
				M12,9 h1v1h-1z
				M13,9 h1v1h-1z
				M14,9 h1v1h-1z
				M15,9 h1v1h-1z
				M18,9 h1v1h-1z
				M21,9 h1v1h-1z
				M22,9 h1v1h-1z
				M2,10 h1v1h-1z
				M4,10 h1v1h-1z
				M5,10 h1v1h-1z
				M6,10 h1v1h-1z
				M7,10 h1v1h-1z
				M8,10 h1v1h-1z
				M13,10 h1v1h-1z
				M16,10 h1v1h-1z
				M19,10 h1v1h-1z
				M20,10 h1v1h-1z
				M21,10 h1v1h-1z
				M24,10 h1v1h-1z
				M25,10 h1v1h-1z
				M26,10 h1v1h-1z
				M27,10 h1v1h-1z
				M28,10 h1v1h-1z
				M2,11 h1v1h-1z
				M3,11 h1v1h-1z
				M6,11 h1v1h-1z
				M7,11 h1v1h-1z
				M9,11 h1v1h-1z
				M10,11 h1v1h-1z
				M12,11 h1v1h-1z
				M13,11 h1v1h-1z
				M14,11 h1v1h-1z
				M18,11 h1v1h-1z
				M19,11 h1v1h-1z
				M20,11 h1v1h-1z
				M21,11 h1v1h-1z
				M23,11 h1v1h-1z
				M24,11 h1v1h-1z
				M25,11 h1v1h-1z
				M26,11 h1v1h-1z
				M30,11 h1v1h-1z
				M5,12 h1v1h-1z
				M6,12 h1v1h-1z
				M7,12 h1v1h-1z
				M8,12 h1v1h-1z
				M9,12 h1v1h-1z
				M10,12 h1v1h-1z
				M13,12 h1v1h-1z
				M17,12 h1v1h-1z
				M18,12 h1v1h-1z
				M19,12 h1v1h-1z
				M22,12 h1v1h-1z
				M23,12 h1v1h-1z
				M24,12 h1v1h-1z
				M25,12 h1v1h-1z
				M2,13 h1v1h-1z
				M3,13 h1v1h-1z
				M4,13 h1v1h-1z
				M5,13 h1v1h-1z
				M7,13 h1v1h-1z
				M9,13 h1v1h-1z
				M10,13 h1v1h-1z
				M11,13 h1v1h-1z
				M13,13 h1v1h-1z
				M16,13 h1v1h-1z
				M25,13 h1v1h-1z
				M26,13 h1v1h-1z
				M27,13 h1v1h-1z
				M29,13 h1v1h-1z
				M4,14 h1v1h-1z
				M7,14 h1v1h-1z
				M8,14 h1v1h-1z
				M10,14 h1v1h-1z
				M12,14 h1v1h-1z
				M13,14 h1v1h-1z
				M17,14 h1v1h-1z
				M19,14 h1v1h-1z
				M25,14 h1v1h-1z
				M27,14 h1v1h-1z
				M28,14 h1v1h-1z
				M2,15 h1v1h-1z
				M3,15 h1v1h-1z
				M4,15 h1v1h-1z
				M9,15 h1v1h-1z
				M15,15 h1v1h-1z
				M16,15 h1v1h-1z
				M18,15 h1v1h-1z
				M21,15 h1v1h-1z
				M22,15 h1v1h-1z
				M23,15 h1v1h-1z
				M24,15 h1v1h-1z
				M25,15 h1v1h-1z
				M26,15 h1v1h-1z
				M30,15 h1v1h-1z
				M4,16 h1v1h-1z
				M5,16 h1v1h-1z
				M8,16 h1v1h-1z
				M9,16 h1v1h-1z
				M10,16 h1v1h-1z
				M12,16 h1v1h-1z
				M14,16 h1v1h-1z
				M15,16 h1v1h-1z
				M16,16 h1v1h-1z
				M17,16 h1v1h-1z
				M18,16 h1v1h-1z
				M19,16 h1v1h-1z
				M22,16 h1v1h-1z
				M23,16 h1v1h-1z
				M24,16 h1v1h-1z
				M27,16 h1v1h-1z
				M28,16 h1v1h-1z
				M2,17 h1v1h-1z
				M6,17 h1v1h-1z
				M9,17 h1v1h-1z
				M10,17 h1v1h-1z
				M11,17 h1v1h-1z
				M15,17 h1v1h-1z
				M18,17 h1v1h-1z
				M24,17 h1v1h-1z
				M25,17 h1v1h-1z
				M29,17 h1v1h-1z
				M2,18 h1v1h-1z
				M4,18 h1v1h-1z
				M8,18 h1v1h-1z
				M10,18 h1v1h-1z
				M16,18 h1v1h-1z
				M18,18 h1v1h-1z
				M19,18 h1v1h-1z
				M21,18 h1v1h-1z
				M27,18 h1v1h-1z
				M28,18 h1v1h-1z
				M2,19 h1v1h-1z
				M5,19 h1v1h-1z
				M6,19 h1v1h-1z
				M10,19 h1v1h-1z
				M11,19 h1v1h-1z
				M17,19 h1v1h-1z
				M18,19 h1v1h-1z
				M19,19 h1v1h-1z
				M20,19 h1v1h-1z
				M21,19 h1v1h-1z
				M22,19 h1v1h-1z
				M23,19 h1v1h-1z
				M24,19 h1v1h-1z
				M26,19 h1v1h-1z
				M28,19 h1v1h-1z
				M30,19 h1v1h-1z
				M2,20 h1v1h-1z
				M4,20 h1v1h-1z
				M6,20 h1v1h-1z
				M8,20 h1v1h-1z
				M9,20 h1v1h-1z
				M11,20 h1v1h-1z
				M12,20 h1v1h-1z
				M13,20 h1v1h-1z
				M14,20 h1v1h-1z
				M17,20 h1v1h-1z
				M20,20 h1v1h-1z
				M23,20 h1v1h-1z
				M24,20 h1v1h-1z
				M28,20 h1v1h-1z
				M2,21 h1v1h-1z
				M11,21 h1v1h-1z
				M12,21 h1v1h-1z
				M16,21 h1v1h-1z
				M22,21 h1v1h-1z
				M25,21 h1v1h-1z
				M29,21 h1v1h-1z
				M2,22 h1v1h-1z
				M5,22 h1v1h-1z
				M6,22 h1v1h-1z
				M8,22 h1v1h-1z
				M9,22 h1v1h-1z
				M10,22 h1v1h-1z
				M12,22 h1v1h-1z
				M14,22 h1v1h-1z
				M17,22 h1v1h-1z
				M18,22 h1v1h-1z
				M19,22 h1v1h-1z
				M22,22 h1v1h-1z
				M23,22 h1v1h-1z
				M24,22 h1v1h-1z
				M25,22 h1v1h-1z
				M26,22 h1v1h-1z
				M28,22 h1v1h-1z
				M29,22 h1v1h-1z
				M30,22 h1v1h-1z
				M10,23 h1v1h-1z
				M11,23 h1v1h-1z
				M15,23 h1v1h-1z
				M16,23 h1v1h-1z
				M17,23 h1v1h-1z
				M18,23 h1v1h-1z
				M19,23 h1v1h-1z
				M20,23 h1v1h-1z
				M22,23 h1v1h-1z
				M26,23 h1v1h-1z
				M27,23 h1v1h-1z
				M28,23 h1v1h-1z
				M29,23 h1v1h-1z
				M30,23 h1v1h-1z
				M15,24 h1v1h-1z
				M16,24 h1v1h-1z
				M17,24 h1v1h-1z
				M18,24 h1v1h-1z
				M19,24 h1v1h-1z
				M20,24 h1v1h-1z
				M21,24 h1v1h-1z
				M22,24 h1v1h-1z
				M24,24 h1v1h-1z
				M26,24 h1v1h-1z
				M27,24 h1v1h-1z
				M28,24 h1v1h-1z
				M10,25 h1v1h-1z
				M11,25 h1v1h-1z
				M15,25 h1v1h-1z
				M17,25 h1v1h-1z
				M21,25 h1v1h-1z
				M22,25 h1v1h-1z
				M26,25 h1v1h-1z
				M10,26 h1v1h-1z
				M11,26 h1v1h-1z
				M13,26 h1v1h-1z
				M14,26 h1v1h-1z
				M16,26 h1v1h-1z
				M17,26 h1v1h-1z
				M18,26 h1v1h-1z
				M19,26 h1v1h-1z
				M22,26 h1v1h-1z
				M23,26 h1v1h-1z
				M24,26 h1v1h-1z
				M25,26 h1v1h-1z
				M26,26 h1v1h-1z
				M28,26 h1v1h-1z
				M10,27 h1v1h-1z
				M11,27 h1v1h-1z
				M15,27 h1v1h-1z
				M17,27 h1v1h-1z
				M18,27 h1v1h-1z
				M19,27 h1v1h-1z
				M20,27 h1v1h-1z
				M21,27 h1v1h-1z
				M27,27 h1v1h-1z
				M28,27 h1v1h-1z
				M29,27 h1v1h-1z
				M30,27 h1v1h-1z
				M10,28 h1v1h-1z
				M12,28 h1v1h-1z
				M14,28 h1v1h-1z
				M15,28 h1v1h-1z
				M17,28 h1v1h-1z
				M18,28 h1v1h-1z
				M20,28 h1v1h-1z
				M21,28 h1v1h-1z
				M24,28 h1v1h-1z
				M25,28 h1v1h-1z
				M26,28 h1v1h-1z
				M27,28 h1v1h-1z
				M28,28 h1v1h-1z
				M29,28 h1v1h-1z
				M14,29 h1v1h-1z
				M18,29 h1v1h-1z
				M22,29 h1v1h-1z
				M23,29 h1v1h-1z
				M25,29 h1v1h-1z
				M26,29 h1v1h-1z
				M27,29 h1v1h-1z
				M29,29 h1v1h-1z
				M10,30 h1v1h-1z
				M11,30 h1v1h-1z
				M12,30 h1v1h-1z
				M19,30 h1v1h-1z
				M20,30 h1v1h-1z
				M21,30 h1v1h-1z
				M23,30 h1v1h-1z
				M25,30 h1v1h-1z
				M26,30 h1v1h-1z
				M28,30 h1v1h-1z
			"/>
		</g>
		<!-- EYEFRAME -->
		<g id="EYEFRAME" fill="#fb00ff">
			<circle cx="2.5" cy="2.5" r="0.5"/>
			<circle cx="3.5" cy="2.5" r="0.5"/>
			<circle cx="4.5" cy="2.5" r="0.5"/>
			<circle cx="5.5" cy="2.5" r="0.5"/>
			<circle cx="6.5" cy="2.5" r="0.5"/>
			<circle cx="7.5" cy="2.5" r="0.5"/>
			<circle cx="8.5" cy="2.5" r="0.5"/>
			<circle cx="24.5" cy="2.5" r="0.5"/>
			<circle cx="25.5" cy="2.5" r="0.5"/>
			<circle cx="26.5" cy="2.5" r="0.5"/>
			<circle cx="27.5" cy="2.5" r="0.5"/>
			<circle cx="28.5" cy="2.5" r="0.5"/>
			<circle cx="29.5" cy="2.5" r="0.5"/>
			<circle cx="30.5" cy="2.5" r="0.5"/>
			<circle cx="2.5" cy="3.5" r="0.5"/>
			<circle cx="8.5" cy="3.5" r="0.5"/>
			<circle cx="24.5" cy="3.5" r="0.5"/>
			<circle cx="30.5" cy="3.5" r="0.5"/>
			<circle cx="2.5" cy="4.5" r="0.5"/>
			<circle cx="8.5" cy="4.5" r="0.5"/>
			<circle cx="24.5" cy="4.5" r="0.5"/>
			<circle cx="30.5" cy="4.5" r="0.5"/>
			<circle cx="2.5" cy="5.5" r="0.5"/>
			<circle cx="8.5" cy="5.5" r="0.5"/>
			<circle cx="24.5" cy="5.5" r="0.5"/>
			<circle cx="30.5" cy="5.5" r="0.5"/>
			<circle cx="2.5" cy="6.5" r="0.5"/>
			<circle cx="8.5" cy="6.5" r="0.5"/>
			<circle cx="24.5" cy="6.5" r="0.5"/>
			<circle cx="30.5" cy="6.5" r="0.5"/>
			<circle cx="2.5" cy="7.5" r="0.5"/>
			<circle cx="8.5" cy="7.5" r="0.5"/>
			<circle cx="24.5" cy="7.5" r="0.5"/>
			<circle cx="30.5" cy="7.5" r="0.5"/>
			<circle cx="2.5" cy="8.5" r="0.5"/>
			<circle cx="3.5" cy="8.5" r="0.5"/>
			<circle cx="4.5" cy="8.5" r="0.5"/>
			<circle cx="5.5" cy="8.5" r="0.5"/>
			<circle cx="6.5" cy="8.5" r="0.5"/>
			<circle cx="7.5" cy="8.5" r="0.5"/>
			<circle cx="8.5" cy="8.5" r="0.5"/>
			<circle cx="24.5" cy="8.5" r="0.5"/>
			<circle cx="25.5" cy="8.5" r="0.5"/>
			<circle cx="26.5" cy="8.5" r="0.5"/>
			<circle cx="27.5" cy="8.5" r="0.5"/>
			<circle cx="28.5" cy="8.5" r="0.5"/>
			<circle cx="29.5" cy="8.5" r="0.5"/>
			<circle cx="30.5" cy="8.5" r="0.5"/>
			<circle cx="2.5" cy="24.5" r="0.5"/>
			<circle cx="3.5" cy="24.5" r="0.5"/>
			<circle cx="4.5" cy="24.5" r="0.5"/>
			<circle cx="5.5" cy="24.5" r="0.5"/>
			<circle cx="6.5" cy="24.5" r="0.5"/>
			<circle cx="7.5" cy="24.5" r="0.5"/>
			<circle cx="8.5" cy="24.5" r="0.5"/>
			<circle cx="2.5" cy="25.5" r="0.5"/>
			<circle cx="8.5" cy="25.5" r="0.5"/>
			<circle cx="2.5" cy="26.5" r="0.5"/>
			<circle cx="8.5" cy="26.5" r="0.5"/>
			<circle cx="2.5" cy="27.5" r="0.5"/>
			<circle cx="8.5" cy="27.5" r="0.5"/>
			<circle cx="2.5" cy="28.5" r="0.5"/>
			<circle cx="8.5" cy="28.5" r="0.5"/>
			<circle cx="2.5" cy="29.5" r="0.5"/>
			<circle cx="8.5" cy="29.5" r="0.5"/>
			<circle cx="2.5" cy="30.5" r="0.5"/>
			<circle cx="3.5" cy="30.5" r="0.5"/>
			<circle cx="4.5" cy="30.5" r="0.5"/>
			<circle cx="5.5" cy="30.5" r="0.5"/>
			<circle cx="6.5" cy="30.5" r="0.5"/>
			<circle cx="7.5" cy="30.5" r="0.5"/>
			<circle cx="8.5" cy="30.5" r="0.5"/>
		</g>
		<!-- EYEBALL -->
		<g id="EYEBALL" fill="#bc0068">
			<circle cx="5.5" cy="5.5" r="1.75"/>
			<circle cx="27.5" cy="5.5" r="1.75"/>
			<circle cx="5.5" cy="27.5" r="1.75"/>
		</g>
	</g>
</svg>
